<?xml version="1.0" encoding="UTF-8"?> <svg xmlns="http://www.w3.org/2000/svg" width="193" height="46" viewBox="0 0 193 46" fill="none"><path d="M62.48 15.3015C61.0759 15.3015 59.4229 15.902 58.4708 17.2821L58.2699 15.5788H55.4137V33.096H58.4708V26.4796C59.3486 27.8334 61.2768 28.233 62.5804 28.233C66.5393 28.233 68.8191 25.3768 68.8191 21.7673C68.8212 18.1337 66.2904 15.3015 62.48 15.3015ZM62.255 25.2742C60.1762 25.2742 58.746 23.6954 58.746 21.7651C58.746 19.8347 60.0496 18.256 62.255 18.256C64.4605 18.256 65.7642 19.8347 65.7642 21.7651C65.7642 23.6976 64.3339 25.2742 62.255 25.2742Z" fill="white"></path><path d="M80.7722 14.3254L79.545 15.878C78.6934 15.3015 77.6911 15.1771 76.7128 15.1771C73.2539 15.1771 70.448 17.5834 70.448 21.4419C70.448 25.3004 72.8543 27.6565 76.7128 27.6565C78.2414 27.6565 79.8441 28.4339 79.8441 30.1371C79.8441 31.8404 78.4663 32.7924 76.7128 32.7924C74.9594 32.7924 73.481 31.7399 73.481 30.1371H70.448C70.448 33.4694 73.1295 35.6508 76.7128 35.6508C80.2962 35.6508 82.9034 33.5458 82.9034 30.1371C82.9034 28.5584 82.4012 27.08 80.3464 26.0516C82.3772 25.1235 82.9515 22.9683 82.9515 21.4397C82.9515 20.0859 82.5999 18.8587 81.6478 17.78L83.0257 16.0265L80.7722 14.3254ZM76.7128 24.8746C74.9332 24.8746 73.481 23.5972 73.481 21.4419C73.481 19.2867 74.9353 17.959 76.7128 17.959C78.4663 17.959 79.9206 19.3129 79.9206 21.4419C79.9206 23.571 78.4663 24.8746 76.7128 24.8746Z" fill="white"></path><path d="M94.6034 17.2822C93.9024 16.055 92.3237 15.2776 90.6685 15.2776C87.0611 15.2536 84.2289 17.4831 84.2289 21.7434C84.2289 26.0779 86.9345 28.3336 90.5942 28.3096C91.9721 28.2834 93.9024 27.5824 94.6034 26.1303L94.7541 27.934H97.6365V15.5768H94.7038L94.6034 17.2822ZM90.9436 25.5014C88.9128 25.5014 87.286 24.0973 87.286 21.7434C87.286 19.3872 88.915 18.0093 90.9436 18.0093C95.7563 18.0093 95.7563 25.5014 90.9436 25.5014Z" fill="white"></path><path d="M114.324 15.402C112.721 15.402 111.291 15.9042 110.188 17.6577C109.487 15.9544 108.009 15.3518 106.53 15.3518C105.353 15.3518 103.923 15.8016 103.272 17.055L103.048 15.5505H100.215V27.9295H103.272V21.3131C103.272 19.6841 104.251 18.2058 105.904 18.2058C107.583 18.2058 108.435 19.6841 108.435 21.3131V27.9295H111.492V21.3131C111.492 19.6841 112.518 18.256 114.173 18.256C115.826 18.256 116.503 19.6339 116.503 21.2629V27.9295H119.56V21.2629C119.56 17.5572 117.831 15.402 114.324 15.402Z" fill="white"></path><path d="M137.424 15.3015C135.52 15.3015 133.59 16.33 132.838 18.3586C132.111 16.1531 130.133 15.3015 128.253 15.3015C126.65 15.3015 125.071 15.9785 124.217 17.6074L124.191 15.5526H123.038V27.9317H124.266V20.5903C124.266 18.2101 125.868 16.4807 128.224 16.4807C130.581 16.4807 132.21 18.2101 132.21 20.5903V27.9317H133.437V20.5903C133.437 18.2101 135.066 16.4545 137.422 16.4545C139.778 16.4545 141.381 18.1337 141.381 20.5139V27.9317H142.608V20.5139C142.612 17.4328 140.457 15.3015 137.424 15.3015Z" fill="white"></path><path d="M151.655 15.3518C148.172 15.3518 145.366 18.0333 145.366 21.7411C145.366 25.676 148.172 28.1064 151.655 28.1064C153.636 28.1064 155.791 27.305 156.992 25.7262L156.114 25.0253C155.186 26.2525 153.282 26.9054 151.653 26.9054C149.098 26.9054 146.866 25.2262 146.615 22.3197H157.767C158.248 17.4808 155.14 15.3518 151.655 15.3518ZM146.62 21.241C146.895 18.208 149.1 16.4807 151.657 16.4807C154.64 16.4807 156.645 18.1839 156.669 21.241H146.62Z" fill="white"></path><path d="M171.627 18.2582C170.624 16.2536 168.62 15.3518 166.488 15.3518C163.03 15.3518 160.274 17.6577 160.274 21.7411C160.274 25.8507 163.006 28.1304 166.464 28.1304C168.569 28.1304 170.6 27.0779 171.627 25.1978V27.9295H172.83V10.3884H171.627V18.2582ZM166.539 26.9294C163.757 26.9294 161.477 25.176 161.477 21.7411C161.477 18.2582 163.757 16.5288 166.539 16.5288C169.395 16.5288 171.6 18.6338 171.6 21.7171C171.602 24.7982 169.447 26.9294 166.539 26.9294Z" fill="white"></path><path d="M176.012 11.5174C176.012 12.821 177.992 12.821 177.992 11.5174C177.99 10.2159 176.012 10.2159 176.012 11.5174Z" fill="white"></path><path d="M177.588 15.5025H176.361V27.9317H177.588V15.5025Z" fill="white"></path><path d="M191.773 15.5527V18.2582C190.744 16.3279 188.716 15.402 186.711 15.402C183.252 15.402 180.422 17.959 180.422 21.7411C180.422 25.5253 183.255 28.1304 186.711 28.1304C188.716 28.1304 190.57 27.2286 191.773 25.2982V27.9295H193C193 23.7959 193 19.6841 193 15.5505H191.773V15.5527ZM186.711 26.9294C183.905 26.9294 181.65 24.8484 181.65 21.7411C181.65 18.6338 183.905 16.579 186.711 16.579C193.601 16.579 193.601 26.9294 186.711 26.9294Z" fill="white"></path><path d="M10.6141 28.5858L14.2913 14.8595C15.1386 11.6976 19.0909 10.6385 21.4056 12.9532L32.4832 24.0307C34.7978 26.3454 33.7387 30.2978 30.5768 31.145L16.8505 34.8223L25.6615 43.6332C29.009 46.9807 34.7236 45.4478 35.9486 40.8775L44.6809 8.92218C45.906 4.34965 41.7221 -0.469641 37.1518 0.755378L4.56103 9.48774C-0.0114973 10.7128 -1.54222 16.4273 1.80529 19.7748L10.6141 28.5858ZM28.8562 14.4511L31.0332 6.32802C31.3804 5.03312 32.9985 4.59857 33.9462 5.54627L39.8944 11.4945C40.8421 12.4422 40.4076 14.0603 39.1127 14.4075L30.9896 16.5845C29.6947 16.9317 28.509 15.746 28.8562 14.4511Z" fill="#1E90FF"></path></svg> 